<svg width="637" height="982" viewBox="0 0 637 982" fill="none" xmlns="http://www.w3.org/2000/svg">
<g clip-path="url(#clip0_376_344)">
<rect width="637" height="982" fill="url(#paint0_linear_376_344)"/>
<g filter="url(#filter0_f_376_344)">
<path d="M224.413 629.2C291.779 795.062 358.506 992.69 195.319 1066.3C134.777 1093.61 67.6639 1153.94 18.4195 1357.15C-1.89622 1440.98 -81.3368 1501.98 -139.243 1438.05C-197.845 1373.34 -244.652 1266.01 -270.868 1135.02C-301.638 981.279 -223.096 834.456 -152.885 694.267C-27.6557 444.22 -135.966 280 -10 280C100.501 280 147.253 439.222 224.413 629.2Z" fill="url(#paint1_linear_376_344)" fill-opacity="0.4"/>
</g>
<path d="M637 127.622L-508 127.622" stroke="white" stroke-opacity="0.6" stroke-width="0.539247"/>
<path d="M637 255.244L-508 255.244" stroke="white" stroke-opacity="0.6" stroke-width="0.539247"/>
<path d="M637 382.865L-508 382.865" stroke="white" stroke-opacity="0.6" stroke-width="0.539247"/>
<path d="M637 510.487L-508 510.487" stroke="white" stroke-opacity="0.6" stroke-width="0.539247"/>
<path d="M637 638.108L-508 638.108" stroke="white" stroke-opacity="0.6" stroke-width="0.539247"/>
<path d="M637 765.73L-508 765.73" stroke="white" stroke-opacity="0.6" stroke-width="0.539247"/>
<path d="M637 893.352L-508 893.352" stroke="white" stroke-opacity="0.6" stroke-width="0.539247"/>
<path d="M2.48633 0L2.48641 1763.34" stroke="white" stroke-opacity="0.6" stroke-width="0.539247"/>
<path d="M130.109 0L130.109 1763.34" stroke="white" stroke-opacity="0.6" stroke-width="0.539247"/>
<path d="M257.73 0L257.731 1763.34" stroke="white" stroke-opacity="0.6" stroke-width="0.539247"/>
<path d="M385.352 0L385.352 1763.34" stroke="white" stroke-opacity="0.6" stroke-width="0.539247"/>
<path d="M512.975 0L512.975 1763.34" stroke="white" stroke-opacity="0.6" stroke-width="0.539247"/>
<mask id="mask0_376_344" style="mask-type:alpha" maskUnits="userSpaceOnUse" x="-105" y="-603" width="742" height="971">
<rect x="-105" y="-603" width="742" height="971" fill="#D9D9D9"/>
</mask>
<g mask="url(#mask0_376_344)">
<g filter="url(#filter1_f_376_344)">
<path d="M931.413 -523.8C998.779 -357.938 1065.51 -160.31 902.319 -86.7004C841.777 -59.3916 774.664 0.937298 725.419 204.149C705.104 287.983 625.663 348.982 567.757 285.046C509.155 220.342 462.348 113.009 436.132 -17.9815C405.362 -171.721 483.904 -318.544 554.115 -458.733C679.344 -708.78 571.034 -873 697 -873C807.501 -873 854.253 -713.778 931.413 -523.8Z" fill="url(#paint2_linear_376_344)"/>
</g>
</g>
<circle cx="567" cy="216" r="46" stroke="#D9D9D9" stroke-width="14"/>
<g filter="url(#filter2_b_376_344)">
<path d="M61.8145 216H581.185V709.357C581.185 715.302 576.366 720.121 570.421 720.121H72.5786C66.6338 720.121 61.8145 715.302 61.8145 709.357V216Z" fill="#FFF8F0" fill-opacity="0.4"/>
</g>
<path d="M172.7 307.55H190.1V312.9H172.7V307.55ZM173.2 322.55H192.95V328H166.7V293H192.25V298.45H173.2V322.55ZM195.507 328L207.257 312.7L207.157 316.05L195.957 301.3H202.907L210.757 311.8H208.107L216.007 301.3H222.757L211.457 316.05L211.507 312.7L223.207 328H216.157L207.907 316.85L210.507 317.2L202.407 328H195.507ZM242.619 328.35C240.452 328.35 238.469 327.85 236.669 326.85C234.902 325.85 233.485 324.35 232.419 322.35C231.385 320.317 230.869 317.75 230.869 314.65C230.869 311.517 231.369 308.95 232.369 306.95C233.402 304.95 234.802 303.467 236.569 302.5C238.335 301.5 240.352 301 242.619 301C245.252 301 247.569 301.567 249.569 302.7C251.602 303.833 253.202 305.417 254.369 307.45C255.569 309.483 256.169 311.883 256.169 314.65C256.169 317.417 255.569 319.833 254.369 321.9C253.202 323.933 251.602 325.517 249.569 326.65C247.569 327.783 245.252 328.35 242.619 328.35ZM227.819 337.7V301.3H233.769V307.6L233.569 314.7L234.069 321.8V337.7H227.819ZM241.919 323C243.419 323 244.752 322.667 245.919 322C247.119 321.333 248.069 320.367 248.769 319.1C249.469 317.833 249.819 316.35 249.819 314.65C249.819 312.917 249.469 311.433 248.769 310.2C248.069 308.933 247.119 307.967 245.919 307.3C244.752 306.633 243.419 306.3 241.919 306.3C240.419 306.3 239.069 306.633 237.869 307.3C236.669 307.967 235.719 308.933 235.019 310.2C234.319 311.433 233.969 312.917 233.969 314.65C233.969 316.35 234.319 317.833 235.019 319.1C235.719 320.367 236.669 321.333 237.869 322C239.069 322.667 240.419 323 241.919 323ZM262.096 328V290.9H268.346V328H262.096ZM288.549 328.35C285.816 328.35 283.383 327.767 281.249 326.6C279.116 325.4 277.433 323.767 276.199 321.7C274.966 319.633 274.349 317.283 274.349 314.65C274.349 311.983 274.966 309.633 276.199 307.6C277.433 305.533 279.116 303.917 281.249 302.75C283.383 301.583 285.816 301 288.549 301C291.316 301 293.766 301.583 295.899 302.75C298.066 303.917 299.749 305.517 300.949 307.55C302.183 309.583 302.799 311.95 302.799 314.65C302.799 317.283 302.183 319.633 300.949 321.7C299.749 323.767 298.066 325.4 295.899 326.6C293.766 327.767 291.316 328.35 288.549 328.35ZM288.549 323C290.083 323 291.449 322.667 292.649 322C293.849 321.333 294.783 320.367 295.449 319.1C296.149 317.833 296.499 316.35 296.499 314.65C296.499 312.917 296.149 311.433 295.449 310.2C294.783 308.933 293.849 307.967 292.649 307.3C291.449 306.633 290.099 306.3 288.599 306.3C287.066 306.3 285.699 306.633 284.499 307.3C283.333 307.967 282.399 308.933 281.699 310.2C280.999 311.433 280.649 312.917 280.649 314.65C280.649 316.35 280.999 317.833 281.699 319.1C282.399 320.367 283.333 321.333 284.499 322C285.699 322.667 287.049 323 288.549 323ZM308.776 328V301.3H314.726V308.65L314.026 306.5C314.826 304.7 316.076 303.333 317.776 302.4C319.509 301.467 321.659 301 324.226 301V306.95C323.959 306.883 323.709 306.85 323.476 306.85C323.242 306.817 323.009 306.8 322.776 306.8C320.409 306.8 318.526 307.5 317.126 308.9C315.726 310.267 315.026 312.317 315.026 315.05V328H308.776ZM344.073 328V322.6L343.723 321.45V312C343.723 310.167 343.173 308.75 342.073 307.75C340.973 306.717 339.307 306.2 337.073 306.2C335.573 306.2 334.09 306.433 332.623 306.9C331.19 307.367 329.973 308.017 328.973 308.85L326.523 304.3C327.957 303.2 329.657 302.383 331.623 301.85C333.623 301.283 335.69 301 337.823 301C341.69 301 344.673 301.933 346.773 303.8C348.907 305.633 349.973 308.483 349.973 312.35V328H344.073ZM335.673 328.35C333.673 328.35 331.923 328.017 330.423 327.35C328.923 326.65 327.757 325.7 326.923 324.5C326.123 323.267 325.723 321.883 325.723 320.35C325.723 318.85 326.073 317.5 326.773 316.3C327.507 315.1 328.69 314.15 330.323 313.45C331.957 312.75 334.123 312.4 336.823 312.4H344.573V316.55H337.273C335.14 316.55 333.707 316.9 332.973 317.6C332.24 318.267 331.873 319.1 331.873 320.1C331.873 321.233 332.323 322.133 333.223 322.8C334.123 323.467 335.373 323.8 336.973 323.8C338.507 323.8 339.873 323.45 341.073 322.75C342.307 322.05 343.19 321.017 343.723 319.65L344.773 323.4C344.173 324.967 343.09 326.183 341.523 327.05C339.99 327.917 338.04 328.35 335.673 328.35ZM384.363 328.35C381.396 328.35 378.796 327.767 376.563 326.6C374.363 325.4 372.646 323.767 371.413 321.7C370.213 319.633 369.613 317.283 369.613 314.65C369.613 311.983 370.196 309.633 371.363 307.6C372.563 305.533 374.196 303.917 376.263 302.75C378.363 301.583 380.746 301 383.413 301C386.013 301 388.33 301.567 390.363 302.7C392.396 303.833 393.996 305.433 395.163 307.5C396.33 309.567 396.913 312 396.913 314.8C396.913 315.067 396.896 315.367 396.863 315.7C396.863 316.033 396.846 316.35 396.813 316.65H374.563V312.5H393.513L391.063 313.8C391.096 312.267 390.78 310.917 390.113 309.75C389.446 308.583 388.53 307.667 387.363 307C386.23 306.333 384.913 306 383.413 306C381.88 306 380.53 306.333 379.363 307C378.23 307.667 377.33 308.6 376.663 309.8C376.03 310.967 375.713 312.35 375.713 313.95V314.95C375.713 316.55 376.08 317.967 376.813 319.2C377.546 320.433 378.58 321.383 379.913 322.05C381.246 322.717 382.78 323.05 384.513 323.05C386.013 323.05 387.363 322.817 388.563 322.35C389.763 321.883 390.83 321.15 391.763 320.15L395.113 324C393.913 325.4 392.396 326.483 390.563 327.25C388.763 327.983 386.696 328.35 384.363 328.35ZM402.916 328V290.9H409.166V328H402.916Z" fill="white"/>
<path d="M146.35 389.35C143.55 389.35 141.05 388.767 138.85 387.6C136.683 386.4 134.983 384.767 133.75 382.7C132.517 380.633 131.9 378.283 131.9 375.65C131.9 372.983 132.517 370.633 133.75 368.6C134.983 366.533 136.683 364.917 138.85 363.75C141.05 362.583 143.55 362 146.35 362C148.95 362 151.233 362.533 153.2 363.6C155.2 364.633 156.717 366.167 157.75 368.2L152.95 371C152.15 369.733 151.167 368.8 150 368.2C148.867 367.6 147.633 367.3 146.3 367.3C144.767 367.3 143.383 367.633 142.15 368.3C140.917 368.967 139.95 369.933 139.25 371.2C138.55 372.433 138.2 373.917 138.2 375.65C138.2 377.383 138.55 378.883 139.25 380.15C139.95 381.383 140.917 382.333 142.15 383C143.383 383.667 144.767 384 146.3 384C147.633 384 148.867 383.7 150 383.1C151.167 382.5 152.15 381.567 152.95 380.3L157.75 383.1C156.717 385.1 155.2 386.65 153.2 387.75C151.233 388.817 148.95 389.35 146.35 389.35ZM174.762 389.35C172.029 389.35 169.595 388.767 167.462 387.6C165.329 386.4 163.645 384.767 162.412 382.7C161.179 380.633 160.562 378.283 160.562 375.65C160.562 372.983 161.179 370.633 162.412 368.6C163.645 366.533 165.329 364.917 167.462 363.75C169.595 362.583 172.029 362 174.762 362C177.529 362 179.979 362.583 182.112 363.75C184.279 364.917 185.962 366.517 187.162 368.55C188.395 370.583 189.012 372.95 189.012 375.65C189.012 378.283 188.395 380.633 187.162 382.7C185.962 384.767 184.279 386.4 182.112 387.6C179.979 388.767 177.529 389.35 174.762 389.35ZM174.762 384C176.295 384 177.662 383.667 178.862 383C180.062 382.333 180.995 381.367 181.662 380.1C182.362 378.833 182.712 377.35 182.712 375.65C182.712 373.917 182.362 372.433 181.662 371.2C180.995 369.933 180.062 368.967 178.862 368.3C177.662 367.633 176.312 367.3 174.812 367.3C173.279 367.3 171.912 367.633 170.712 368.3C169.545 368.967 168.612 369.933 167.912 371.2C167.212 372.433 166.862 373.917 166.862 375.65C166.862 377.35 167.212 378.833 167.912 380.1C168.612 381.367 169.545 382.333 170.712 383C171.912 383.667 173.262 384 174.762 384ZM210.139 362C212.272 362 214.172 362.417 215.839 363.25C217.539 364.083 218.872 365.367 219.839 367.1C220.805 368.8 221.289 371 221.289 373.7V389H215.039V374.5C215.039 372.133 214.472 370.367 213.339 369.2C212.239 368.033 210.689 367.45 208.689 367.45C207.222 367.45 205.922 367.75 204.789 368.35C203.655 368.95 202.772 369.85 202.139 371.05C201.539 372.217 201.239 373.7 201.239 375.5V389H194.989V362.3H200.939V369.5L199.889 367.3C200.822 365.6 202.172 364.3 203.939 363.4C205.739 362.467 207.805 362 210.139 362ZM241.266 389.35C238.533 389.35 236.099 388.767 233.966 387.6C231.833 386.4 230.149 384.767 228.916 382.7C227.683 380.633 227.066 378.283 227.066 375.65C227.066 372.983 227.683 370.633 228.916 368.6C230.149 366.533 231.833 364.917 233.966 363.75C236.099 362.583 238.533 362 241.266 362C244.033 362 246.483 362.583 248.616 363.75C250.783 364.917 252.466 366.517 253.666 368.55C254.899 370.583 255.516 372.95 255.516 375.65C255.516 378.283 254.899 380.633 253.666 382.7C252.466 384.767 250.783 386.4 248.616 387.6C246.483 388.767 244.033 389.35 241.266 389.35ZM241.266 384C242.799 384 244.166 383.667 245.366 383C246.566 382.333 247.499 381.367 248.166 380.1C248.866 378.833 249.216 377.35 249.216 375.65C249.216 373.917 248.866 372.433 248.166 371.2C247.499 369.933 246.566 368.967 245.366 368.3C244.166 367.633 242.816 367.3 241.316 367.3C239.783 367.3 238.416 367.633 237.216 368.3C236.049 368.967 235.116 369.933 234.416 371.2C233.716 372.433 233.366 373.917 233.366 375.65C233.366 377.35 233.716 378.833 234.416 380.1C235.116 381.367 236.049 382.333 237.216 383C238.416 383.667 239.766 384 241.266 384ZM273.743 389.35C270.943 389.35 268.443 388.767 266.243 387.6C264.076 386.4 262.376 384.767 261.143 382.7C259.909 380.633 259.293 378.283 259.293 375.65C259.293 372.983 259.909 370.633 261.143 368.6C262.376 366.533 264.076 364.917 266.243 363.75C268.443 362.583 270.943 362 273.743 362C276.343 362 278.626 362.533 280.593 363.6C282.593 364.633 284.109 366.167 285.143 368.2L280.343 371C279.543 369.733 278.559 368.8 277.393 368.2C276.259 367.6 275.026 367.3 273.693 367.3C272.159 367.3 270.776 367.633 269.543 368.3C268.309 368.967 267.343 369.933 266.643 371.2C265.943 372.433 265.593 373.917 265.593 375.65C265.593 377.383 265.943 378.883 266.643 380.15C267.343 381.383 268.309 382.333 269.543 383C270.776 383.667 272.159 384 273.693 384C275.026 384 276.259 383.7 277.393 383.1C278.559 382.5 279.543 381.567 280.343 380.3L285.143 383.1C284.109 385.1 282.593 386.65 280.593 387.75C278.626 388.817 276.343 389.35 273.743 389.35ZM290.301 389V362.3H296.551V389H290.301ZM293.451 357.9C292.285 357.9 291.318 357.533 290.551 356.8C289.818 356.067 289.451 355.183 289.451 354.15C289.451 353.083 289.818 352.2 290.551 351.5C291.318 350.767 292.285 350.4 293.451 350.4C294.618 350.4 295.568 350.75 296.301 351.45C297.068 352.117 297.451 352.967 297.451 354C297.451 355.1 297.085 356.033 296.351 356.8C295.618 357.533 294.651 357.9 293.451 357.9ZM338.454 362C340.588 362 342.471 362.417 344.104 363.25C345.771 364.083 347.071 365.367 348.004 367.1C348.938 368.8 349.404 371 349.404 373.7V389H343.154V374.5C343.154 372.133 342.638 370.367 341.604 369.2C340.571 368.033 339.088 367.45 337.154 367.45C335.788 367.45 334.571 367.75 333.504 368.35C332.471 368.95 331.654 369.833 331.054 371C330.488 372.167 330.204 373.65 330.204 375.45V389H323.954V374.5C323.954 372.133 323.438 370.367 322.404 369.2C321.371 368.033 319.888 367.45 317.954 367.45C316.588 367.45 315.371 367.75 314.304 368.35C313.271 368.95 312.454 369.833 311.854 371C311.288 372.167 311.004 373.65 311.004 375.45V389H304.754V362.3H310.704V369.4L309.654 367.3C310.554 365.567 311.854 364.25 313.554 363.35C315.288 362.45 317.254 362 319.454 362C321.954 362 324.121 362.617 325.954 363.85C327.821 365.083 329.054 366.95 329.654 369.45L327.204 368.6C328.071 366.6 329.504 365 331.504 363.8C333.504 362.6 335.821 362 338.454 362ZM357.391 389V362.3H363.641V389H357.391ZM360.541 357.9C359.374 357.9 358.408 357.533 357.641 356.8C356.908 356.067 356.541 355.183 356.541 354.15C356.541 353.083 356.908 352.2 357.641 351.5C358.408 350.767 359.374 350.4 360.541 350.4C361.708 350.4 362.658 350.75 363.391 351.45C364.158 352.117 364.541 352.967 364.541 354C364.541 355.1 364.174 356.033 363.441 356.8C362.708 357.533 361.741 357.9 360.541 357.9ZM384.394 389.35C381.427 389.35 378.827 388.767 376.594 387.6C374.394 386.4 372.677 384.767 371.444 382.7C370.244 380.633 369.644 378.283 369.644 375.65C369.644 372.983 370.227 370.633 371.394 368.6C372.594 366.533 374.227 364.917 376.294 363.75C378.394 362.583 380.777 362 383.444 362C386.044 362 388.361 362.567 390.394 363.7C392.427 364.833 394.027 366.433 395.194 368.5C396.361 370.567 396.944 373 396.944 375.8C396.944 376.067 396.927 376.367 396.894 376.7C396.894 377.033 396.877 377.35 396.844 377.65H374.594V373.5H393.544L391.094 374.8C391.127 373.267 390.811 371.917 390.144 370.75C389.477 369.583 388.561 368.667 387.394 368C386.261 367.333 384.944 367 383.444 367C381.911 367 380.561 367.333 379.394 368C378.261 368.667 377.361 369.6 376.694 370.8C376.061 371.967 375.744 373.35 375.744 374.95V375.95C375.744 377.55 376.111 378.967 376.844 380.2C377.577 381.433 378.611 382.383 379.944 383.05C381.277 383.717 382.811 384.05 384.544 384.05C386.044 384.05 387.394 383.817 388.594 383.35C389.794 382.883 390.861 382.15 391.794 381.15L395.144 385C393.944 386.4 392.427 387.483 390.594 388.25C388.794 388.983 386.727 389.35 384.394 389.35ZM418.098 362C420.231 362 422.131 362.417 423.798 363.25C425.498 364.083 426.831 365.367 427.798 367.1C428.764 368.8 429.248 371 429.248 373.7V389H422.998V374.5C422.998 372.133 422.431 370.367 421.298 369.2C420.198 368.033 418.648 367.45 416.648 367.45C415.181 367.45 413.881 367.75 412.748 368.35C411.614 368.95 410.731 369.85 410.098 371.05C409.498 372.217 409.198 373.7 409.198 375.5V389H402.948V362.3H408.898V369.5L407.848 367.3C408.781 365.6 410.131 364.3 411.898 363.4C413.698 362.467 415.764 362 418.098 362ZM447.226 389.35C444.293 389.35 442.026 388.6 440.426 387.1C438.826 385.567 438.026 383.317 438.026 380.35V356.4H444.276V380.2C444.276 381.467 444.593 382.45 445.226 383.15C445.893 383.85 446.81 384.2 447.976 384.2C449.376 384.2 450.543 383.833 451.476 383.1L453.226 387.55C452.493 388.15 451.593 388.6 450.526 388.9C449.46 389.2 448.36 389.35 447.226 389.35ZM433.626 367.5V362.5H451.426V367.5H433.626ZM469.489 389.35C466.755 389.35 464.322 388.767 462.189 387.6C460.055 386.4 458.372 384.767 457.139 382.7C455.905 380.633 455.289 378.283 455.289 375.65C455.289 372.983 455.905 370.633 457.139 368.6C458.372 366.533 460.055 364.917 462.189 363.75C464.322 362.583 466.755 362 469.489 362C472.255 362 474.705 362.583 476.839 363.75C479.005 364.917 480.689 366.517 481.889 368.55C483.122 370.583 483.739 372.95 483.739 375.65C483.739 378.283 483.122 380.633 481.889 382.7C480.689 384.767 479.005 386.4 476.839 387.6C474.705 388.767 472.255 389.35 469.489 389.35ZM469.489 384C471.022 384 472.389 383.667 473.589 383C474.789 382.333 475.722 381.367 476.389 380.1C477.089 378.833 477.439 377.35 477.439 375.65C477.439 373.917 477.089 372.433 476.389 371.2C475.722 369.933 474.789 368.967 473.589 368.3C472.389 367.633 471.039 367.3 469.539 367.3C468.005 367.3 466.639 367.633 465.439 368.3C464.272 368.967 463.339 369.933 462.639 371.2C461.939 372.433 461.589 373.917 461.589 375.65C461.589 377.35 461.939 378.833 462.639 380.1C463.339 381.367 464.272 382.333 465.439 383C466.639 383.667 467.989 384 469.489 384Z" fill="white"/>
<path d="M146.65 448.35C143.683 448.35 141.083 447.767 138.85 446.6C136.65 445.4 134.933 443.767 133.7 441.7C132.5 439.633 131.9 437.283 131.9 434.65C131.9 431.983 132.483 429.633 133.65 427.6C134.85 425.533 136.483 423.917 138.55 422.75C140.65 421.583 143.033 421 145.7 421C148.3 421 150.617 421.567 152.65 422.7C154.683 423.833 156.283 425.433 157.45 427.5C158.617 429.567 159.2 432 159.2 434.8C159.2 435.067 159.183 435.367 159.15 435.7C159.15 436.033 159.133 436.35 159.1 436.65H136.85V432.5H155.8L153.35 433.8C153.383 432.267 153.067 430.917 152.4 429.75C151.733 428.583 150.817 427.667 149.65 427C148.517 426.333 147.2 426 145.7 426C144.167 426 142.817 426.333 141.65 427C140.517 427.667 139.617 428.6 138.95 429.8C138.317 430.967 138 432.35 138 433.95V434.95C138 436.55 138.367 437.967 139.1 439.2C139.833 440.433 140.867 441.383 142.2 442.05C143.533 442.717 145.067 443.05 146.8 443.05C148.3 443.05 149.65 442.817 150.85 442.35C152.05 441.883 153.117 441.15 154.05 440.15L157.4 444C156.2 445.4 154.683 446.483 152.85 447.25C151.05 447.983 148.983 448.35 146.65 448.35ZM180.354 421C182.487 421 184.387 421.417 186.054 422.25C187.754 423.083 189.087 424.367 190.054 426.1C191.02 427.8 191.504 430 191.504 432.7V448H185.254V433.5C185.254 431.133 184.687 429.367 183.554 428.2C182.454 427.033 180.904 426.45 178.904 426.45C177.437 426.45 176.137 426.75 175.004 427.35C173.87 427.95 172.987 428.85 172.354 430.05C171.754 431.217 171.454 432.7 171.454 434.5V448H165.204V421.3H171.154V428.5L170.104 426.3C171.037 424.6 172.387 423.3 174.154 422.4C175.954 421.467 178.02 421 180.354 421ZM224.55 448.35C222.284 448.35 220.284 447.933 218.55 447.1C216.817 446.233 215.467 444.933 214.5 443.2C213.534 441.433 213.05 439.217 213.05 436.55V421.3H219.3V435.7C219.3 438.1 219.834 439.9 220.9 441.1C222 442.267 223.55 442.85 225.55 442.85C227.017 442.85 228.284 442.55 229.35 441.95C230.45 441.35 231.3 440.45 231.9 439.25C232.534 438.05 232.85 436.567 232.85 434.8V421.3H239.1V448H233.15V440.8L234.2 443C233.3 444.733 231.984 446.067 230.25 447C228.517 447.9 226.617 448.35 224.55 448.35ZM262.434 421C264.567 421 266.467 421.417 268.134 422.25C269.834 423.083 271.167 424.367 272.134 426.1C273.1 427.8 273.584 430 273.584 432.7V448H267.334V433.5C267.334 431.133 266.767 429.367 265.634 428.2C264.534 427.033 262.984 426.45 260.984 426.45C259.517 426.45 258.217 426.75 257.084 427.35C255.95 427.95 255.067 428.85 254.434 430.05C253.834 431.217 253.534 432.7 253.534 434.5V448H247.284V421.3H253.234V428.5L252.184 426.3C253.117 424.6 254.467 423.3 256.234 422.4C258.034 421.467 260.1 421 262.434 421ZM297.962 448V442.6L297.612 441.45V432C297.612 430.167 297.062 428.75 295.962 427.75C294.862 426.717 293.195 426.2 290.962 426.2C289.462 426.2 287.979 426.433 286.512 426.9C285.079 427.367 283.862 428.017 282.862 428.85L280.412 424.3C281.845 423.2 283.545 422.383 285.512 421.85C287.512 421.283 289.579 421 291.712 421C295.579 421 298.562 421.933 300.662 423.8C302.795 425.633 303.862 428.483 303.862 432.35V448H297.962ZM289.562 448.35C287.562 448.35 285.812 448.017 284.312 447.35C282.812 446.65 281.645 445.7 280.812 444.5C280.012 443.267 279.612 441.883 279.612 440.35C279.612 438.85 279.962 437.5 280.662 436.3C281.395 435.1 282.579 434.15 284.212 433.45C285.845 432.75 288.012 432.4 290.712 432.4H298.462V436.55H291.162C289.029 436.55 287.595 436.9 286.862 437.6C286.129 438.267 285.762 439.1 285.762 440.1C285.762 441.233 286.212 442.133 287.112 442.8C288.012 443.467 289.262 443.8 290.862 443.8C292.395 443.8 293.762 443.45 294.962 442.75C296.195 442.05 297.079 441.017 297.612 439.65L298.662 443.4C298.062 444.967 296.979 446.183 295.412 447.05C293.879 447.917 291.929 448.35 289.562 448.35ZM326.552 448V419.8C326.552 417 327.368 414.767 329.002 413.1C330.668 411.4 333.035 410.55 336.102 410.55C337.202 410.55 338.235 410.667 339.202 410.9C340.202 411.133 341.035 411.5 341.702 412L340.002 416.7C339.535 416.333 339.002 416.067 338.402 415.9C337.802 415.7 337.185 415.6 336.552 415.6C335.252 415.6 334.268 415.967 333.602 416.7C332.935 417.4 332.602 418.467 332.602 419.9V422.9L332.802 425.7V448H326.552ZM322.152 426.5V421.5H339.952V426.5H322.152ZM355.768 448.35C353.035 448.35 350.601 447.767 348.468 446.6C346.335 445.4 344.651 443.767 343.418 441.7C342.185 439.633 341.568 437.283 341.568 434.65C341.568 431.983 342.185 429.633 343.418 427.6C344.651 425.533 346.335 423.917 348.468 422.75C350.601 421.583 353.035 421 355.768 421C358.535 421 360.985 421.583 363.118 422.75C365.285 423.917 366.968 425.517 368.168 427.55C369.401 429.583 370.018 431.95 370.018 434.65C370.018 437.283 369.401 439.633 368.168 441.7C366.968 443.767 365.285 445.4 363.118 446.6C360.985 447.767 358.535 448.35 355.768 448.35ZM355.768 443C357.301 443 358.668 442.667 359.868 442C361.068 441.333 362.001 440.367 362.668 439.1C363.368 437.833 363.718 436.35 363.718 434.65C363.718 432.917 363.368 431.433 362.668 430.2C362.001 428.933 361.068 427.967 359.868 427.3C358.668 426.633 357.318 426.3 355.818 426.3C354.285 426.3 352.918 426.633 351.718 427.3C350.551 427.967 349.618 428.933 348.918 430.2C348.218 431.433 347.868 432.917 347.868 434.65C347.868 436.35 348.218 437.833 348.918 439.1C349.618 440.367 350.551 441.333 351.718 442C352.918 442.667 354.268 443 355.768 443ZM375.995 448V421.3H381.945V428.65L381.245 426.5C382.045 424.7 383.295 423.333 384.995 422.4C386.728 421.467 388.878 421 391.445 421V426.95C391.178 426.883 390.928 426.85 390.695 426.85C390.461 426.817 390.228 426.8 389.995 426.8C387.628 426.8 385.745 427.5 384.345 428.9C382.945 430.267 382.245 432.317 382.245 435.05V448H375.995ZM430.446 421C432.58 421 434.463 421.417 436.096 422.25C437.763 423.083 439.063 424.367 439.996 426.1C440.93 427.8 441.396 430 441.396 432.7V448H435.146V433.5C435.146 431.133 434.63 429.367 433.596 428.2C432.563 427.033 431.08 426.45 429.146 426.45C427.78 426.45 426.563 426.75 425.496 427.35C424.463 427.95 423.646 428.833 423.046 430C422.48 431.167 422.196 432.65 422.196 434.45V448H415.946V433.5C415.946 431.133 415.43 429.367 414.396 428.2C413.363 427.033 411.88 426.45 409.946 426.45C408.58 426.45 407.363 426.75 406.296 427.35C405.263 427.95 404.446 428.833 403.846 430C403.28 431.167 402.996 432.65 402.996 434.45V448H396.746V421.3H402.696V428.4L401.646 426.3C402.546 424.567 403.846 423.25 405.546 422.35C407.28 421.45 409.246 421 411.446 421C413.946 421 416.113 421.617 417.946 422.85C419.813 424.083 421.046 425.95 421.646 428.45L419.196 427.6C420.063 425.6 421.496 424 423.496 422.8C425.496 421.6 427.813 421 430.446 421ZM465.833 448V442.6L465.483 441.45V432C465.483 430.167 464.933 428.75 463.833 427.75C462.733 426.717 461.067 426.2 458.833 426.2C457.333 426.2 455.85 426.433 454.383 426.9C452.95 427.367 451.733 428.017 450.733 428.85L448.283 424.3C449.717 423.2 451.417 422.383 453.383 421.85C455.383 421.283 457.45 421 459.583 421C463.45 421 466.433 421.933 468.533 423.8C470.667 425.633 471.733 428.483 471.733 432.35V448H465.833ZM457.433 448.35C455.433 448.35 453.683 448.017 452.183 447.35C450.683 446.65 449.517 445.7 448.683 444.5C447.883 443.267 447.483 441.883 447.483 440.35C447.483 438.85 447.833 437.5 448.533 436.3C449.267 435.1 450.45 434.15 452.083 433.45C453.717 432.75 455.883 432.4 458.583 432.4H466.333V436.55H459.033C456.9 436.55 455.467 436.9 454.733 437.6C454 438.267 453.633 439.1 453.633 440.1C453.633 441.233 454.083 442.133 454.983 442.8C455.883 443.467 457.133 443.8 458.733 443.8C460.267 443.8 461.633 443.45 462.833 442.75C464.067 442.05 464.95 441.017 465.483 439.65L466.533 443.4C465.933 444.967 464.85 446.183 463.283 447.05C461.75 447.917 459.8 448.35 457.433 448.35Z" fill="white"/>
<path d="M133.424 583.456H138.992V585.168H133.424V583.456ZM133.584 588.256H139.904V590H131.504V578.8H139.68V580.544H133.584V588.256ZM142.031 590V578.128H144.031V590H142.031ZM154.998 590.112C154.102 590.112 153.302 589.925 152.598 589.552C151.904 589.168 151.36 588.645 150.966 587.984C150.571 587.323 150.374 586.571 150.374 585.728C150.374 584.875 150.571 584.123 150.966 583.472C151.36 582.811 151.904 582.293 152.598 581.92C153.302 581.547 154.102 581.36 154.998 581.36C155.83 581.36 156.56 581.531 157.19 581.872C157.83 582.203 158.315 582.693 158.646 583.344L157.11 584.24C156.854 583.835 156.539 583.536 156.166 583.344C155.803 583.152 155.408 583.056 154.982 583.056C154.491 583.056 154.048 583.163 153.654 583.376C153.259 583.589 152.95 583.899 152.726 584.304C152.502 584.699 152.39 585.173 152.39 585.728C152.39 586.283 152.502 586.763 152.726 587.168C152.95 587.563 153.259 587.867 153.654 588.08C154.048 588.293 154.491 588.4 154.982 588.4C155.408 588.4 155.803 588.304 156.166 588.112C156.539 587.92 156.854 587.621 157.11 587.216L158.646 588.112C158.315 588.752 157.83 589.248 157.19 589.6C156.56 589.941 155.83 590.112 154.998 590.112ZM164.09 590.112C163.215 590.112 162.436 589.925 161.754 589.552C161.071 589.168 160.532 588.645 160.138 587.984C159.743 587.323 159.546 586.571 159.546 585.728C159.546 584.875 159.743 584.123 160.138 583.472C160.532 582.811 161.071 582.293 161.754 581.92C162.436 581.547 163.215 581.36 164.09 581.36C164.975 581.36 165.759 581.547 166.442 581.92C167.135 582.293 167.674 582.805 168.058 583.456C168.452 584.107 168.65 584.864 168.65 585.728C168.65 586.571 168.452 587.323 168.058 587.984C167.674 588.645 167.135 589.168 166.442 589.552C165.759 589.925 164.975 590.112 164.09 590.112ZM164.09 588.4C164.58 588.4 165.018 588.293 165.402 588.08C165.786 587.867 166.084 587.557 166.298 587.152C166.522 586.747 166.634 586.272 166.634 585.728C166.634 585.173 166.522 584.699 166.298 584.304C166.084 583.899 165.786 583.589 165.402 583.376C165.018 583.163 164.586 583.056 164.106 583.056C163.615 583.056 163.178 583.163 162.794 583.376C162.42 583.589 162.122 583.899 161.898 584.304C161.674 584.699 161.562 585.173 161.562 585.728C161.562 586.272 161.674 586.747 161.898 587.152C162.122 587.557 162.42 587.867 162.794 588.08C163.178 588.293 163.61 588.4 164.09 588.4ZM175.41 581.36C176.093 581.36 176.701 581.493 177.234 581.76C177.778 582.027 178.205 582.437 178.514 582.992C178.823 583.536 178.978 584.24 178.978 585.104V590H176.978V585.36C176.978 584.603 176.797 584.037 176.434 583.664C176.082 583.291 175.586 583.104 174.946 583.104C174.477 583.104 174.061 583.2 173.698 583.392C173.335 583.584 173.053 583.872 172.85 584.256C172.658 584.629 172.562 585.104 172.562 585.68V590H170.562V581.456H172.466V583.76L172.13 583.056C172.429 582.512 172.861 582.096 173.426 581.808C174.002 581.509 174.663 581.36 175.41 581.36ZM185.371 590.112C184.496 590.112 183.717 589.925 183.035 589.552C182.352 589.168 181.813 588.645 181.419 587.984C181.024 587.323 180.827 586.571 180.827 585.728C180.827 584.875 181.024 584.123 181.419 583.472C181.813 582.811 182.352 582.293 183.035 581.92C183.717 581.547 184.496 581.36 185.371 581.36C186.256 581.36 187.04 581.547 187.723 581.92C188.416 582.293 188.955 582.805 189.339 583.456C189.733 584.107 189.931 584.864 189.931 585.728C189.931 586.571 189.733 587.323 189.339 587.984C188.955 588.645 188.416 589.168 187.723 589.552C187.04 589.925 186.256 590.112 185.371 590.112ZM185.371 588.4C185.861 588.4 186.299 588.293 186.683 588.08C187.067 587.867 187.365 587.557 187.579 587.152C187.803 586.747 187.915 586.272 187.915 585.728C187.915 585.173 187.803 584.699 187.579 584.304C187.365 583.899 187.067 583.589 186.683 583.376C186.299 583.163 185.867 583.056 185.387 583.056C184.896 583.056 184.459 583.163 184.075 583.376C183.701 583.589 183.403 583.899 183.179 584.304C182.955 584.699 182.843 585.173 182.843 585.728C182.843 586.272 182.955 586.747 183.179 587.152C183.403 587.557 183.701 587.867 184.075 588.08C184.459 588.293 184.891 588.4 185.371 588.4ZM195.763 590.112C194.867 590.112 194.067 589.925 193.363 589.552C192.67 589.168 192.126 588.645 191.731 587.984C191.337 587.323 191.139 586.571 191.139 585.728C191.139 584.875 191.337 584.123 191.731 583.472C192.126 582.811 192.67 582.293 193.363 581.92C194.067 581.547 194.867 581.36 195.763 581.36C196.595 581.36 197.326 581.531 197.955 581.872C198.595 582.203 199.081 582.693 199.411 583.344L197.875 584.24C197.619 583.835 197.305 583.536 196.931 583.344C196.569 583.152 196.174 583.056 195.747 583.056C195.257 583.056 194.814 583.163 194.419 583.376C194.025 583.589 193.715 583.899 193.491 584.304C193.267 584.699 193.155 585.173 193.155 585.728C193.155 586.283 193.267 586.763 193.491 587.168C193.715 587.563 194.025 587.867 194.419 588.08C194.814 588.293 195.257 588.4 195.747 588.4C196.174 588.4 196.569 588.304 196.931 588.112C197.305 587.92 197.619 587.621 197.875 587.216L199.411 588.112C199.081 588.752 198.595 589.248 197.955 589.6C197.326 589.941 196.595 590.112 195.763 590.112ZM201.062 590V581.456H203.062V590H201.062ZM202.07 580.048C201.697 580.048 201.387 579.931 201.142 579.696C200.907 579.461 200.79 579.179 200.79 578.848C200.79 578.507 200.907 578.224 201.142 578C201.387 577.765 201.697 577.648 202.07 577.648C202.443 577.648 202.747 577.76 202.982 577.984C203.227 578.197 203.35 578.469 203.35 578.8C203.35 579.152 203.233 579.451 202.998 579.696C202.763 579.931 202.454 580.048 202.07 580.048ZM216.471 581.36C217.154 581.36 217.756 581.493 218.279 581.76C218.812 582.027 219.228 582.437 219.527 582.992C219.826 583.536 219.975 584.24 219.975 585.104V590H217.975V585.36C217.975 584.603 217.81 584.037 217.479 583.664C217.148 583.291 216.674 583.104 216.055 583.104C215.618 583.104 215.228 583.2 214.887 583.392C214.556 583.584 214.295 583.867 214.103 584.24C213.922 584.613 213.831 585.088 213.831 585.664V590H211.831V585.36C211.831 584.603 211.666 584.037 211.335 583.664C211.004 583.291 210.53 583.104 209.911 583.104C209.474 583.104 209.084 583.2 208.743 583.392C208.412 583.584 208.151 583.867 207.959 584.24C207.778 584.613 207.687 585.088 207.687 585.664V590H205.687V581.456H207.591V583.728L207.255 583.056C207.543 582.501 207.959 582.08 208.503 581.792C209.058 581.504 209.687 581.36 210.391 581.36C211.191 581.36 211.884 581.557 212.471 581.952C213.068 582.347 213.463 582.944 213.655 583.744L212.871 583.472C213.148 582.832 213.607 582.32 214.247 581.936C214.887 581.552 215.628 581.36 216.471 581.36ZM222.531 590V581.456H224.531V590H222.531ZM223.539 580.048C223.165 580.048 222.856 579.931 222.611 579.696C222.376 579.461 222.259 579.179 222.259 578.848C222.259 578.507 222.376 578.224 222.611 578C222.856 577.765 223.165 577.648 223.539 577.648C223.912 577.648 224.216 577.76 224.451 577.984C224.696 578.197 224.819 578.469 224.819 578.8C224.819 579.152 224.701 579.451 224.467 579.696C224.232 579.931 223.923 580.048 223.539 580.048ZM231.172 590.112C230.222 590.112 229.39 589.925 228.676 589.552C227.972 589.168 227.422 588.645 227.028 587.984C226.644 587.323 226.452 586.571 226.452 585.728C226.452 584.875 226.638 584.123 227.012 583.472C227.396 582.811 227.918 582.293 228.58 581.92C229.252 581.547 230.014 581.36 230.868 581.36C231.7 581.36 232.441 581.541 233.092 581.904C233.742 582.267 234.254 582.779 234.628 583.44C235.001 584.101 235.188 584.88 235.188 585.776C235.188 585.861 235.182 585.957 235.172 586.064C235.172 586.171 235.166 586.272 235.156 586.368H228.036V585.04H234.1L233.316 585.456C233.326 584.965 233.225 584.533 233.012 584.16C232.798 583.787 232.505 583.493 232.132 583.28C231.769 583.067 231.348 582.96 230.868 582.96C230.377 582.96 229.945 583.067 229.572 583.28C229.209 583.493 228.921 583.792 228.708 584.176C228.505 584.549 228.404 584.992 228.404 585.504V585.824C228.404 586.336 228.521 586.789 228.756 587.184C228.99 587.579 229.321 587.883 229.748 588.096C230.174 588.309 230.665 588.416 231.22 588.416C231.7 588.416 232.132 588.341 232.516 588.192C232.9 588.043 233.241 587.808 233.54 587.488L234.612 588.72C234.228 589.168 233.742 589.515 233.156 589.76C232.58 589.995 231.918 590.112 231.172 590.112ZM241.957 581.36C242.64 581.36 243.248 581.493 243.781 581.76C244.325 582.027 244.752 582.437 245.061 582.992C245.37 583.536 245.525 584.24 245.525 585.104V590H243.525V585.36C243.525 584.603 243.344 584.037 242.981 583.664C242.629 583.291 242.133 583.104 241.493 583.104C241.024 583.104 240.608 583.2 240.245 583.392C239.882 583.584 239.6 583.872 239.397 584.256C239.205 584.629 239.109 585.104 239.109 585.68V590H237.109V581.456H239.013V583.76L238.677 583.056C238.976 582.512 239.408 582.096 239.973 581.808C240.549 581.509 241.21 581.36 241.957 581.36ZM251.278 590.112C250.339 590.112 249.614 589.872 249.102 589.392C248.59 588.901 248.334 588.181 248.334 587.232V579.568H250.334V587.184C250.334 587.589 250.435 587.904 250.638 588.128C250.851 588.352 251.145 588.464 251.518 588.464C251.966 588.464 252.339 588.347 252.638 588.112L253.198 589.536C252.963 589.728 252.675 589.872 252.334 589.968C251.993 590.064 251.641 590.112 251.278 590.112ZM246.926 583.12V581.52H252.622V583.12H246.926ZM258.402 590.112C257.527 590.112 256.749 589.925 256.066 589.552C255.383 589.168 254.845 588.645 254.45 587.984C254.055 587.323 253.858 586.571 253.858 585.728C253.858 584.875 254.055 584.123 254.45 583.472C254.845 582.811 255.383 582.293 256.066 581.92C256.749 581.547 257.527 581.36 258.402 581.36C259.287 581.36 260.071 581.547 260.754 581.92C261.447 582.293 261.986 582.805 262.37 583.456C262.765 584.107 262.962 584.864 262.962 585.728C262.962 586.571 262.765 587.323 262.37 587.984C261.986 588.645 261.447 589.168 260.754 589.552C260.071 589.925 259.287 590.112 258.402 590.112ZM258.402 588.4C258.893 588.4 259.33 588.293 259.714 588.08C260.098 587.867 260.397 587.557 260.61 587.152C260.834 586.747 260.946 586.272 260.946 585.728C260.946 585.173 260.834 584.699 260.61 584.304C260.397 583.899 260.098 583.589 259.714 583.376C259.33 583.163 258.898 583.056 258.418 583.056C257.927 583.056 257.49 583.163 257.106 583.376C256.733 583.589 256.434 583.899 256.21 584.304C255.986 584.699 255.874 585.173 255.874 585.728C255.874 586.272 255.986 586.747 256.21 587.152C256.434 587.557 256.733 587.867 257.106 588.08C257.49 588.293 257.922 588.4 258.402 588.4ZM274.144 581.36C274.827 581.36 275.435 581.493 275.968 581.76C276.512 582.027 276.939 582.437 277.248 582.992C277.558 583.536 277.712 584.24 277.712 585.104V590H275.712V585.36C275.712 584.603 275.531 584.037 275.168 583.664C274.816 583.291 274.32 583.104 273.68 583.104C273.211 583.104 272.795 583.2 272.432 583.392C272.07 583.584 271.787 583.872 271.584 584.256C271.392 584.629 271.296 585.104 271.296 585.68V590H269.296V581.456H271.2V583.76L270.864 583.056C271.163 582.512 271.595 582.096 272.16 581.808C272.736 581.509 273.398 581.36 274.144 581.36ZM284.105 590.112C283.23 590.112 282.452 589.925 281.769 589.552C281.086 589.168 280.548 588.645 280.153 587.984C279.758 587.323 279.561 586.571 279.561 585.728C279.561 584.875 279.758 584.123 280.153 583.472C280.548 582.811 281.086 582.293 281.769 581.92C282.452 581.547 283.23 581.36 284.105 581.36C284.99 581.36 285.774 581.547 286.457 581.92C287.15 582.293 287.689 582.805 288.073 583.456C288.468 584.107 288.665 584.864 288.665 585.728C288.665 586.571 288.468 587.323 288.073 587.984C287.689 588.645 287.15 589.168 286.457 589.552C285.774 589.925 284.99 590.112 284.105 590.112ZM284.105 588.4C284.596 588.4 285.033 588.293 285.417 588.08C285.801 587.867 286.1 587.557 286.313 587.152C286.537 586.747 286.649 586.272 286.649 585.728C286.649 585.173 286.537 584.699 286.313 584.304C286.1 583.899 285.801 583.589 285.417 583.376C285.033 583.163 284.601 583.056 284.121 583.056C283.63 583.056 283.193 583.163 282.809 583.376C282.436 583.589 282.137 583.899 281.913 584.304C281.689 584.699 281.577 585.173 281.577 585.728C281.577 586.272 281.689 586.747 281.913 587.152C282.137 587.557 282.436 587.867 282.809 588.08C283.193 588.293 283.625 588.4 284.105 588.4ZM298.216 590.112C297.277 590.112 296.552 589.872 296.039 589.392C295.528 588.901 295.272 588.181 295.272 587.232V579.568H297.272V587.184C297.272 587.589 297.373 587.904 297.576 588.128C297.789 588.352 298.082 588.464 298.456 588.464C298.904 588.464 299.277 588.347 299.576 588.112L300.136 589.536C299.901 589.728 299.613 589.872 299.272 589.968C298.93 590.064 298.578 590.112 298.216 590.112ZM293.864 583.12V581.52H299.56V583.12H293.864ZM301.781 590V581.456H303.781V590H301.781ZM302.789 580.048C302.415 580.048 302.106 579.931 301.861 579.696C301.626 579.461 301.509 579.179 301.509 578.848C301.509 578.507 301.626 578.224 301.861 578C302.106 577.765 302.415 577.648 302.789 577.648C303.162 577.648 303.466 577.76 303.701 577.984C303.946 578.197 304.069 578.469 304.069 578.8C304.069 579.152 303.951 579.451 303.717 579.696C303.482 579.931 303.173 580.048 302.789 580.048ZM310.422 590.112C309.472 590.112 308.64 589.925 307.926 589.552C307.222 589.168 306.672 588.645 306.278 587.984C305.894 587.323 305.702 586.571 305.702 585.728C305.702 584.875 305.888 584.123 306.262 583.472C306.646 582.811 307.168 582.293 307.83 581.92C308.502 581.547 309.264 581.36 310.118 581.36C310.95 581.36 311.691 581.541 312.342 581.904C312.992 582.267 313.504 582.779 313.878 583.44C314.251 584.101 314.438 584.88 314.438 585.776C314.438 585.861 314.432 585.957 314.422 586.064C314.422 586.171 314.416 586.272 314.406 586.368H307.286V585.04H313.35L312.566 585.456C312.576 584.965 312.475 584.533 312.262 584.16C312.048 583.787 311.755 583.493 311.382 583.28C311.019 583.067 310.598 582.96 310.118 582.96C309.627 582.96 309.195 583.067 308.822 583.28C308.459 583.493 308.171 583.792 307.958 584.176C307.755 584.549 307.654 584.992 307.654 585.504V585.824C307.654 586.336 307.771 586.789 308.006 587.184C308.24 587.579 308.571 587.883 308.998 588.096C309.424 588.309 309.915 588.416 310.47 588.416C310.95 588.416 311.382 588.341 311.766 588.192C312.15 588.043 312.491 587.808 312.79 587.488L313.862 588.72C313.478 589.168 312.992 589.515 312.406 589.76C311.83 589.995 311.168 590.112 310.422 590.112ZM321.207 581.36C321.89 581.36 322.498 581.493 323.031 581.76C323.575 582.027 324.002 582.437 324.311 582.992C324.62 583.536 324.775 584.24 324.775 585.104V590H322.775V585.36C322.775 584.603 322.594 584.037 322.231 583.664C321.879 583.291 321.383 583.104 320.743 583.104C320.274 583.104 319.858 583.2 319.495 583.392C319.132 583.584 318.85 583.872 318.647 584.256C318.455 584.629 318.359 585.104 318.359 585.68V590H316.359V581.456H318.263V583.76L317.927 583.056C318.226 582.512 318.658 582.096 319.223 581.808C319.799 581.509 320.46 581.36 321.207 581.36ZM331.344 590.112C330.394 590.112 329.562 589.925 328.848 589.552C328.144 589.168 327.594 588.645 327.2 587.984C326.816 587.323 326.624 586.571 326.624 585.728C326.624 584.875 326.81 584.123 327.184 583.472C327.568 582.811 328.09 582.293 328.752 581.92C329.424 581.547 330.186 581.36 331.04 581.36C331.872 581.36 332.613 581.541 333.264 581.904C333.914 582.267 334.426 582.779 334.8 583.44C335.173 584.101 335.36 584.88 335.36 585.776C335.36 585.861 335.354 585.957 335.344 586.064C335.344 586.171 335.338 586.272 335.328 586.368H328.208V585.04H334.272L333.488 585.456C333.498 584.965 333.397 584.533 333.184 584.16C332.97 583.787 332.677 583.493 332.304 583.28C331.941 583.067 331.52 582.96 331.04 582.96C330.549 582.96 330.117 583.067 329.744 583.28C329.381 583.493 329.093 583.792 328.88 584.176C328.677 584.549 328.576 584.992 328.576 585.504V585.824C328.576 586.336 328.693 586.789 328.928 587.184C329.162 587.579 329.493 587.883 329.92 588.096C330.346 588.309 330.837 588.416 331.392 588.416C331.872 588.416 332.304 588.341 332.688 588.192C333.072 588.043 333.413 587.808 333.712 587.488L334.784 588.72C334.4 589.168 333.914 589.515 333.328 589.76C332.752 589.995 332.09 590.112 331.344 590.112ZM341.703 590V578.128H343.703V590H341.703ZM346.328 590V581.456H348.328V590H346.328ZM345.992 580.288L348.152 578.096H350.504L347.72 580.288H345.992ZM361.737 581.36C362.419 581.36 363.022 581.493 363.545 581.76C364.078 582.027 364.494 582.437 364.793 582.992C365.091 583.536 365.241 584.24 365.241 585.104V590H363.241V585.36C363.241 584.603 363.075 584.037 362.745 583.664C362.414 583.291 361.939 583.104 361.321 583.104C360.883 583.104 360.494 583.2 360.153 583.392C359.822 583.584 359.561 583.867 359.369 584.24C359.187 584.613 359.097 585.088 359.097 585.664V590H357.097V585.36C357.097 584.603 356.931 584.037 356.601 583.664C356.27 583.291 355.795 583.104 355.177 583.104C354.739 583.104 354.35 583.2 354.009 583.392C353.678 583.584 353.417 583.867 353.225 584.24C353.043 584.613 352.953 585.088 352.953 585.664V590H350.953V581.456H352.857V583.728L352.521 583.056C352.809 582.501 353.225 582.08 353.769 581.792C354.323 581.504 354.953 581.36 355.657 581.36C356.457 581.36 357.15 581.557 357.737 581.952C358.334 582.347 358.729 582.944 358.921 583.744L358.137 583.472C358.414 582.832 358.873 582.32 359.513 581.936C360.153 581.552 360.894 581.36 361.737 581.36ZM367.796 590V581.456H369.796V590H367.796ZM368.804 580.048C368.431 580.048 368.122 579.931 367.876 579.696C367.642 579.461 367.524 579.179 367.524 578.848C367.524 578.507 367.642 578.224 367.876 578C368.122 577.765 368.431 577.648 368.804 577.648C369.178 577.648 369.482 577.76 369.716 577.984C369.962 578.197 370.084 578.469 370.084 578.8C370.084 579.152 369.967 579.451 369.732 579.696C369.498 579.931 369.188 580.048 368.804 580.048ZM375.637 590.112C374.699 590.112 373.973 589.872 373.461 589.392C372.949 588.901 372.693 588.181 372.693 587.232V579.568H374.693V587.184C374.693 587.589 374.795 587.904 374.997 588.128C375.211 588.352 375.504 588.464 375.877 588.464C376.325 588.464 376.699 588.347 376.997 588.112L377.557 589.536C377.323 589.728 377.035 589.872 376.693 589.968C376.352 590.064 376 590.112 375.637 590.112ZM371.285 583.12V581.52H376.981V583.12H371.285ZM382.937 590.112C381.988 590.112 381.156 589.925 380.441 589.552C379.737 589.168 379.188 588.645 378.793 587.984C378.409 587.323 378.217 586.571 378.217 585.728C378.217 584.875 378.404 584.123 378.777 583.472C379.161 582.811 379.684 582.293 380.345 581.92C381.017 581.547 381.78 581.36 382.633 581.36C383.465 581.36 384.207 581.541 384.857 581.904C385.508 582.267 386.02 582.779 386.393 583.44C386.767 584.101 386.953 584.88 386.953 585.776C386.953 585.861 386.948 585.957 386.937 586.064C386.937 586.171 386.932 586.272 386.921 586.368H379.801V585.04H385.865L385.081 585.456C385.092 584.965 384.991 584.533 384.777 584.16C384.564 583.787 384.271 583.493 383.897 583.28C383.535 583.067 383.113 582.96 382.633 582.96C382.143 582.96 381.711 583.067 381.337 583.28C380.975 583.493 380.687 583.792 380.473 584.176C380.271 584.549 380.169 584.992 380.169 585.504V585.824C380.169 586.336 380.287 586.789 380.521 587.184C380.756 587.579 381.087 587.883 381.513 588.096C381.94 588.309 382.431 588.416 382.985 588.416C383.465 588.416 383.897 588.341 384.281 588.192C384.665 588.043 385.007 587.808 385.305 587.488L386.377 588.72C385.993 589.168 385.508 589.515 384.921 589.76C384.345 589.995 383.684 590.112 382.937 590.112ZM391.515 590.112C390.8 590.112 390.112 590.021 389.451 589.84C388.8 589.648 388.283 589.419 387.899 589.152L388.667 587.632C389.051 587.877 389.509 588.08 390.043 588.24C390.576 588.4 391.109 588.48 391.643 588.48C392.272 588.48 392.725 588.395 393.003 588.224C393.291 588.053 393.435 587.824 393.435 587.536C393.435 587.301 393.339 587.125 393.147 587.008C392.955 586.88 392.704 586.784 392.395 586.72C392.085 586.656 391.739 586.597 391.355 586.544C390.981 586.491 390.603 586.421 390.219 586.336C389.845 586.24 389.504 586.107 389.195 585.936C388.885 585.755 388.635 585.515 388.443 585.216C388.251 584.917 388.155 584.523 388.155 584.032C388.155 583.488 388.309 583.019 388.618 582.624C388.928 582.219 389.36 581.909 389.914 581.696C390.48 581.472 391.147 581.36 391.915 581.36C392.491 581.36 393.072 581.424 393.659 581.552C394.245 581.68 394.731 581.861 395.115 582.096L394.347 583.616C393.941 583.371 393.531 583.205 393.115 583.12C392.709 583.024 392.304 582.976 391.899 582.976C391.291 582.976 390.837 583.067 390.539 583.248C390.251 583.429 390.107 583.659 390.107 583.936C390.107 584.192 390.203 584.384 390.395 584.512C390.587 584.64 390.837 584.741 391.147 584.816C391.456 584.891 391.797 584.955 392.171 585.008C392.555 585.051 392.933 585.12 393.307 585.216C393.68 585.312 394.021 585.445 394.331 585.616C394.651 585.776 394.907 586.005 395.099 586.304C395.291 586.603 395.387 586.992 395.387 587.472C395.387 588.005 395.227 588.469 394.907 588.864C394.597 589.259 394.155 589.568 393.579 589.792C393.003 590.005 392.315 590.112 391.515 590.112ZM397.749 590.112C397.386 590.112 397.077 589.989 396.821 589.744C396.565 589.488 396.437 589.168 396.437 588.784C396.437 588.379 396.565 588.059 396.821 587.824C397.077 587.579 397.386 587.456 397.749 587.456C398.112 587.456 398.421 587.579 398.677 587.824C398.933 588.059 399.061 588.379 399.061 588.784C399.061 589.168 398.933 589.488 398.677 589.744C398.421 589.989 398.112 590.112 397.749 590.112ZM134.976 610.16C134.101 610.16 133.264 610.037 132.464 609.792C131.664 609.536 131.029 609.211 130.56 608.816L131.28 607.2C131.728 607.552 132.283 607.845 132.944 608.08C133.605 608.315 134.283 608.432 134.976 608.432C135.563 608.432 136.037 608.368 136.4 608.24C136.763 608.112 137.029 607.941 137.2 607.728C137.371 607.504 137.456 607.253 137.456 606.976C137.456 606.635 137.333 606.363 137.088 606.16C136.843 605.947 136.523 605.781 136.128 605.664C135.744 605.536 135.312 605.419 134.832 605.312C134.363 605.205 133.888 605.083 133.408 604.944C132.939 604.795 132.507 604.608 132.112 604.384C131.728 604.149 131.413 603.84 131.168 603.456C130.923 603.072 130.8 602.581 130.8 601.984C130.8 601.376 130.96 600.821 131.28 600.32C131.611 599.808 132.107 599.403 132.768 599.104C133.44 598.795 134.288 598.64 135.312 598.64C135.984 598.64 136.651 598.725 137.312 598.896C137.973 599.067 138.549 599.312 139.04 599.632L138.384 601.248C137.883 600.949 137.365 600.731 136.832 600.592C136.299 600.443 135.787 600.368 135.296 600.368C134.72 600.368 134.251 600.437 133.888 600.576C133.536 600.715 133.275 600.896 133.104 601.12C132.944 601.344 132.864 601.6 132.864 601.888C132.864 602.229 132.981 602.507 133.216 602.72C133.461 602.923 133.776 603.083 134.16 603.2C134.555 603.317 134.992 603.435 135.472 603.552C135.952 603.659 136.427 603.781 136.896 603.92C137.376 604.059 137.808 604.24 138.192 604.464C138.587 604.688 138.901 604.992 139.136 605.376C139.381 605.76 139.504 606.245 139.504 606.832C139.504 607.429 139.339 607.984 139.008 608.496C138.688 608.997 138.192 609.403 137.52 609.712C136.848 610.011 136 610.16 134.976 610.16ZM141.375 610V601.456H143.375V610H141.375ZM142.383 600.048C142.009 600.048 141.7 599.931 141.455 599.696C141.22 599.461 141.103 599.179 141.103 598.848C141.103 598.507 141.22 598.224 141.455 598C141.7 597.765 142.009 597.648 142.383 597.648C142.756 597.648 143.06 597.76 143.295 597.984C143.54 598.197 143.663 598.469 143.663 598.8C143.663 599.152 143.545 599.451 143.311 599.696C143.076 599.931 142.767 600.048 142.383 600.048ZM150.016 610.112C149.066 610.112 148.234 609.925 147.52 609.552C146.816 609.168 146.266 608.645 145.872 607.984C145.488 607.323 145.296 606.571 145.296 605.728C145.296 604.875 145.482 604.123 145.856 603.472C146.24 602.811 146.762 602.293 147.424 601.92C148.096 601.547 148.858 601.36 149.712 601.36C150.544 601.36 151.285 601.541 151.936 601.904C152.586 602.267 153.098 602.779 153.472 603.44C153.845 604.101 154.032 604.88 154.032 605.776C154.032 605.861 154.026 605.957 154.016 606.064C154.016 606.171 154.01 606.272 154 606.368H146.88V605.04H152.944L152.16 605.456C152.17 604.965 152.069 604.533 151.856 604.16C151.642 603.787 151.349 603.493 150.976 603.28C150.613 603.067 150.192 602.96 149.712 602.96C149.221 602.96 148.789 603.067 148.416 603.28C148.053 603.493 147.765 603.792 147.552 604.176C147.349 604.549 147.248 604.992 147.248 605.504V605.824C147.248 606.336 147.365 606.789 147.6 607.184C147.834 607.579 148.165 607.883 148.592 608.096C149.018 608.309 149.509 608.416 150.064 608.416C150.544 608.416 150.976 608.341 151.36 608.192C151.744 608.043 152.085 607.808 152.384 607.488L153.456 608.72C153.072 609.168 152.586 609.515 152 609.76C151.424 609.995 150.762 610.112 150.016 610.112ZM166.737 601.36C167.419 601.36 168.022 601.493 168.545 601.76C169.078 602.027 169.494 602.437 169.793 602.992C170.091 603.536 170.241 604.24 170.241 605.104V610H168.241V605.36C168.241 604.603 168.075 604.037 167.745 603.664C167.414 603.291 166.939 603.104 166.321 603.104C165.883 603.104 165.494 603.2 165.153 603.392C164.822 603.584 164.561 603.867 164.369 604.24C164.187 604.613 164.097 605.088 164.097 605.664V610H162.097V605.36C162.097 604.603 161.931 604.037 161.601 603.664C161.27 603.291 160.795 603.104 160.177 603.104C159.739 603.104 159.35 603.2 159.009 603.392C158.678 603.584 158.417 603.867 158.225 604.24C158.043 604.613 157.953 605.088 157.953 605.664V610H155.953V601.456H157.857V603.728L157.521 603.056C157.809 602.501 158.225 602.08 158.769 601.792C159.323 601.504 159.953 601.36 160.657 601.36C161.457 601.36 162.15 601.557 162.737 601.952C163.334 602.347 163.729 602.944 163.921 603.744L163.137 603.472C163.414 602.832 163.873 602.32 164.513 601.936C165.153 601.552 165.894 601.36 166.737 601.36ZM177.532 610.112C176.839 610.112 176.204 609.952 175.628 609.632C175.063 609.312 174.61 608.832 174.268 608.192C173.938 607.541 173.772 606.72 173.772 605.728C173.772 604.725 173.932 603.904 174.252 603.264C174.583 602.624 175.031 602.149 175.596 601.84C176.162 601.52 176.807 601.36 177.532 601.36C178.375 601.36 179.116 601.541 179.756 601.904C180.407 602.267 180.919 602.773 181.292 603.424C181.676 604.075 181.868 604.843 181.868 605.728C181.868 606.613 181.676 607.387 181.292 608.048C180.919 608.699 180.407 609.205 179.756 609.568C179.116 609.931 178.375 610.112 177.532 610.112ZM172.796 613.104V601.456H174.7V603.472L174.636 605.744L174.796 608.016V613.104H172.796ZM177.308 608.4C177.788 608.4 178.215 608.293 178.588 608.08C178.972 607.867 179.276 607.557 179.5 607.152C179.724 606.747 179.836 606.272 179.836 605.728C179.836 605.173 179.724 604.699 179.5 604.304C179.276 603.899 178.972 603.589 178.588 603.376C178.215 603.163 177.788 603.056 177.308 603.056C176.828 603.056 176.396 603.163 176.012 603.376C175.628 603.589 175.324 603.899 175.1 604.304C174.876 604.699 174.764 605.173 174.764 605.728C174.764 606.272 174.876 606.747 175.1 607.152C175.324 607.557 175.628 607.867 176.012 608.08C176.396 608.293 176.828 608.4 177.308 608.4ZM183.765 610V601.456H185.669V603.808L185.445 603.12C185.701 602.544 186.101 602.107 186.645 601.808C187.2 601.509 187.888 601.36 188.709 601.36V603.264C188.624 603.243 188.544 603.232 188.469 603.232C188.394 603.221 188.32 603.216 188.245 603.216C187.488 603.216 186.885 603.44 186.437 603.888C185.989 604.325 185.765 604.981 185.765 605.856V610H183.765ZM194.344 610.112C193.394 610.112 192.562 609.925 191.848 609.552C191.144 609.168 190.594 608.645 190.2 607.984C189.816 607.323 189.624 606.571 189.624 605.728C189.624 604.875 189.81 604.123 190.184 603.472C190.568 602.811 191.09 602.293 191.752 601.92C192.424 601.547 193.186 601.36 194.04 601.36C194.872 601.36 195.613 601.541 196.264 601.904C196.914 602.267 197.426 602.779 197.8 603.44C198.173 604.101 198.36 604.88 198.36 605.776C198.36 605.861 198.354 605.957 198.344 606.064C198.344 606.171 198.338 606.272 198.328 606.368H191.208V605.04H197.272L196.488 605.456C196.498 604.965 196.397 604.533 196.184 604.16C195.97 603.787 195.677 603.493 195.304 603.28C194.941 603.067 194.52 602.96 194.04 602.96C193.549 602.96 193.117 603.067 192.744 603.28C192.381 603.493 192.093 603.792 191.88 604.176C191.677 604.549 191.576 604.992 191.576 605.504V605.824C191.576 606.336 191.693 606.789 191.928 607.184C192.162 607.579 192.493 607.883 192.92 608.096C193.346 608.309 193.837 608.416 194.392 608.416C194.872 608.416 195.304 608.341 195.688 608.192C196.072 608.043 196.413 607.808 196.712 607.488L197.784 608.72C197.4 609.168 196.914 609.515 196.328 609.76C195.752 609.995 195.09 610.112 194.344 610.112ZM209.967 610V608.272L209.855 607.904V604.88C209.855 604.293 209.679 603.84 209.327 603.52C208.975 603.189 208.441 603.024 207.727 603.024C207.247 603.024 206.772 603.099 206.303 603.248C205.844 603.397 205.455 603.605 205.135 603.872L204.351 602.416C204.809 602.064 205.353 601.803 205.983 601.632C206.623 601.451 207.284 601.36 207.967 601.36C209.204 601.36 210.159 601.659 210.831 602.256C211.513 602.843 211.855 603.755 211.855 604.992V610H209.967ZM207.279 610.112C206.639 610.112 206.079 610.005 205.599 609.792C205.119 609.568 204.745 609.264 204.479 608.88C204.223 608.485 204.095 608.043 204.095 607.552C204.095 607.072 204.207 606.64 204.431 606.256C204.665 605.872 205.044 605.568 205.567 605.344C206.089 605.12 206.783 605.008 207.647 605.008H210.127V606.336H207.791C207.108 606.336 206.649 606.448 206.415 606.672C206.18 606.885 206.063 607.152 206.063 607.472C206.063 607.835 206.207 608.123 206.495 608.336C206.783 608.549 207.183 608.656 207.695 608.656C208.185 608.656 208.623 608.544 209.007 608.32C209.401 608.096 209.684 607.765 209.855 607.328L210.191 608.528C209.999 609.029 209.652 609.419 209.151 609.696C208.66 609.973 208.036 610.112 207.279 610.112ZM219.157 610.112C218.464 610.112 217.829 609.952 217.253 609.632C216.688 609.312 216.235 608.832 215.893 608.192C215.563 607.541 215.397 606.72 215.397 605.728C215.397 604.725 215.557 603.904 215.877 603.264C216.208 602.624 216.656 602.149 217.221 601.84C217.787 601.52 218.432 601.36 219.157 601.36C220 601.36 220.741 601.541 221.381 601.904C222.032 602.267 222.544 602.773 222.917 603.424C223.301 604.075 223.493 604.843 223.493 605.728C223.493 606.613 223.301 607.387 222.917 608.048C222.544 608.699 222.032 609.205 221.381 609.568C220.741 609.931 220 610.112 219.157 610.112ZM214.421 613.104V601.456H216.325V603.472L216.261 605.744L216.421 608.016V613.104H214.421ZM218.933 608.4C219.413 608.4 219.84 608.293 220.213 608.08C220.597 607.867 220.901 607.557 221.125 607.152C221.349 606.747 221.461 606.272 221.461 605.728C221.461 605.173 221.349 604.699 221.125 604.304C220.901 603.899 220.597 603.589 220.213 603.376C219.84 603.163 219.413 603.056 218.933 603.056C218.453 603.056 218.021 603.163 217.637 603.376C217.253 603.589 216.949 603.899 216.725 604.304C216.501 604.699 216.389 605.173 216.389 605.728C216.389 606.272 216.501 606.747 216.725 607.152C216.949 607.557 217.253 607.867 217.637 608.08C218.021 608.293 218.453 608.4 218.933 608.4ZM225.39 610V601.456H227.294V603.808L227.07 603.12C227.326 602.544 227.726 602.107 228.27 601.808C228.825 601.509 229.513 601.36 230.334 601.36V603.264C230.249 603.243 230.169 603.232 230.094 603.232C230.019 603.221 229.945 603.216 229.87 603.216C229.113 603.216 228.51 603.44 228.062 603.888C227.614 604.325 227.39 604.981 227.39 605.856V610H225.39ZM235.969 610.112C235.019 610.112 234.187 609.925 233.473 609.552C232.769 609.168 232.219 608.645 231.825 607.984C231.441 607.323 231.249 606.571 231.249 605.728C231.249 604.875 231.435 604.123 231.809 603.472C232.193 602.811 232.715 602.293 233.377 601.92C234.049 601.547 234.811 601.36 235.665 601.36C236.497 601.36 237.238 601.541 237.889 601.904C238.539 602.267 239.051 602.779 239.425 603.44C239.798 604.101 239.985 604.88 239.985 605.776C239.985 605.861 239.979 605.957 239.969 606.064C239.969 606.171 239.963 606.272 239.953 606.368H232.833V605.04H238.897L238.113 605.456C238.123 604.965 238.022 604.533 237.809 604.16C237.595 603.787 237.302 603.493 236.929 603.28C236.566 603.067 236.145 602.96 235.665 602.96C235.174 602.96 234.742 603.067 234.369 603.28C234.006 603.493 233.718 603.792 233.505 604.176C233.302 604.549 233.201 604.992 233.201 605.504V605.824C233.201 606.336 233.318 606.789 233.553 607.184C233.787 607.579 234.118 607.883 234.545 608.096C234.971 608.309 235.462 608.416 236.017 608.416C236.497 608.416 236.929 608.341 237.313 608.192C237.697 608.043 238.038 607.808 238.337 607.488L239.409 608.72C239.025 609.168 238.539 609.515 237.953 609.76C237.377 609.995 236.715 610.112 235.969 610.112ZM246.754 601.36C247.436 601.36 248.044 601.493 248.578 601.76C249.122 602.027 249.548 602.437 249.858 602.992C250.167 603.536 250.322 604.24 250.322 605.104V610H248.322V605.36C248.322 604.603 248.14 604.037 247.778 603.664C247.426 603.291 246.93 603.104 246.29 603.104C245.82 603.104 245.404 603.2 245.042 603.392C244.679 603.584 244.396 603.872 244.194 604.256C244.002 604.629 243.906 605.104 243.906 605.68V610H241.906V601.456H243.81V603.76L243.474 603.056C243.772 602.512 244.204 602.096 244.77 601.808C245.346 601.509 246.007 601.36 246.754 601.36ZM256.491 610.112C255.669 610.112 254.928 609.931 254.267 609.568C253.616 609.195 253.104 608.683 252.731 608.032C252.357 607.381 252.171 606.613 252.171 605.728C252.171 604.843 252.357 604.075 252.731 603.424C253.104 602.773 253.616 602.267 254.267 601.904C254.928 601.541 255.669 601.36 256.491 601.36C257.205 601.36 257.845 601.52 258.411 601.84C258.976 602.149 259.424 602.624 259.755 603.264C260.085 603.904 260.251 604.725 260.251 605.728C260.251 606.72 260.091 607.541 259.771 608.192C259.451 608.832 259.008 609.312 258.443 609.632C257.877 609.952 257.227 610.112 256.491 610.112ZM256.731 608.4C257.211 608.4 257.637 608.293 258.011 608.08C258.395 607.867 258.699 607.557 258.923 607.152C259.157 606.747 259.275 606.272 259.275 605.728C259.275 605.173 259.157 604.699 258.923 604.304C258.699 603.899 258.395 603.589 258.011 603.376C257.637 603.163 257.211 603.056 256.731 603.056C256.251 603.056 255.819 603.163 255.435 603.376C255.061 603.589 254.757 603.899 254.523 604.304C254.299 604.699 254.187 605.173 254.187 605.728C254.187 606.272 254.299 606.747 254.523 607.152C254.757 607.557 255.061 607.867 255.435 608.08C255.819 608.293 256.251 608.4 256.731 608.4ZM259.323 610V607.984L259.403 605.712L259.243 603.44V598.128H261.227V610H259.323ZM267.875 610.112C266.926 610.112 266.094 609.925 265.379 609.552C264.675 609.168 264.126 608.645 263.731 607.984C263.347 607.323 263.155 606.571 263.155 605.728C263.155 604.875 263.342 604.123 263.715 603.472C264.099 602.811 264.622 602.293 265.283 601.92C265.955 601.547 266.718 601.36 267.571 601.36C268.403 601.36 269.144 601.541 269.795 601.904C270.446 602.267 270.958 602.779 271.331 603.44C271.704 604.101 271.891 604.88 271.891 605.776C271.891 605.861 271.886 605.957 271.875 606.064C271.875 606.171 271.87 606.272 271.859 606.368H264.739V605.04H270.803L270.019 605.456C270.03 604.965 269.928 604.533 269.715 604.16C269.502 603.787 269.208 603.493 268.835 603.28C268.472 603.067 268.051 602.96 267.571 602.96C267.08 602.96 266.648 603.067 266.275 603.28C265.912 603.493 265.624 603.792 265.411 604.176C265.208 604.549 265.107 604.992 265.107 605.504V605.824C265.107 606.336 265.224 606.789 265.459 607.184C265.694 607.579 266.024 607.883 266.451 608.096C266.878 608.309 267.368 608.416 267.923 608.416C268.403 608.416 268.835 608.341 269.219 608.192C269.603 608.043 269.944 607.808 270.243 607.488L271.315 608.72C270.931 609.168 270.446 609.515 269.859 609.76C269.283 609.995 268.622 610.112 267.875 610.112ZM273.812 610V601.456H275.716V603.808L275.492 603.12C275.748 602.544 276.148 602.107 276.692 601.808C277.247 601.509 277.935 601.36 278.756 601.36V603.264C278.671 603.243 278.591 603.232 278.516 603.232C278.441 603.221 278.367 603.216 278.292 603.216C277.535 603.216 276.932 603.44 276.484 603.888C276.036 604.325 275.812 604.981 275.812 605.856V610H273.812ZM285.107 610V608.272L284.995 607.904V604.88C284.995 604.293 284.819 603.84 284.467 603.52C284.115 603.189 283.582 603.024 282.867 603.024C282.387 603.024 281.913 603.099 281.443 603.248C280.985 603.397 280.595 603.605 280.275 603.872L279.491 602.416C279.95 602.064 280.494 601.803 281.123 601.632C281.763 601.451 282.425 601.36 283.107 601.36C284.345 601.36 285.299 601.659 285.971 602.256C286.654 602.843 286.995 603.755 286.995 604.992V610H285.107ZM282.419 610.112C281.779 610.112 281.219 610.005 280.739 609.792C280.259 609.568 279.886 609.264 279.619 608.88C279.363 608.485 279.235 608.043 279.235 607.552C279.235 607.072 279.347 606.64 279.571 606.256C279.806 605.872 280.185 605.568 280.707 605.344C281.23 605.12 281.923 605.008 282.787 605.008H285.267V606.336H282.931C282.249 606.336 281.79 606.448 281.555 606.672C281.321 606.885 281.203 607.152 281.203 607.472C281.203 607.835 281.347 608.123 281.635 608.336C281.923 608.549 282.323 608.656 282.835 608.656C283.326 608.656 283.763 608.544 284.147 608.32C284.542 608.096 284.825 607.765 284.995 607.328L285.331 608.528C285.139 609.029 284.793 609.419 284.291 609.696C283.801 609.973 283.177 610.112 282.419 610.112ZM281.939 600.288L284.099 598.096H286.451L283.667 600.288H281.939ZM292.202 610.112C291.487 610.112 290.799 610.021 290.138 609.84C289.487 609.648 288.97 609.419 288.586 609.152L289.354 607.632C289.738 607.877 290.197 608.08 290.73 608.24C291.263 608.4 291.797 608.48 292.33 608.48C292.959 608.48 293.413 608.395 293.69 608.224C293.978 608.053 294.122 607.824 294.122 607.536C294.122 607.301 294.026 607.125 293.834 607.008C293.642 606.88 293.391 606.784 293.082 606.72C292.773 606.656 292.426 606.597 292.042 606.544C291.669 606.491 291.29 606.421 290.906 606.336C290.533 606.24 290.191 606.107 289.882 605.936C289.573 605.755 289.322 605.515 289.13 605.216C288.938 604.917 288.842 604.523 288.842 604.032C288.842 603.488 288.997 603.019 289.306 602.624C289.615 602.219 290.047 601.909 290.602 601.696C291.167 601.472 291.834 601.36 292.602 601.36C293.178 601.36 293.759 601.424 294.346 601.552C294.933 601.68 295.418 601.861 295.802 602.096L295.034 603.616C294.629 603.371 294.218 603.205 293.802 603.12C293.397 603.024 292.991 602.976 292.586 602.976C291.978 602.976 291.525 603.067 291.226 603.248C290.938 603.429 290.794 603.659 290.794 603.936C290.794 604.192 290.89 604.384 291.082 604.512C291.274 604.64 291.525 604.741 291.834 604.816C292.143 604.891 292.485 604.955 292.858 605.008C293.242 605.051 293.621 605.12 293.994 605.216C294.367 605.312 294.709 605.445 295.018 605.616C295.338 605.776 295.594 606.005 295.786 606.304C295.978 606.603 296.074 606.992 296.074 607.472C296.074 608.005 295.914 608.469 295.594 608.864C295.285 609.259 294.842 609.568 294.266 609.792C293.69 610.005 293.002 610.112 292.202 610.112ZM313.002 601.36C313.685 601.36 314.288 601.493 314.81 601.76C315.344 602.027 315.76 602.437 316.058 602.992C316.357 603.536 316.506 604.24 316.506 605.104V610H314.506V605.36C314.506 604.603 314.341 604.037 314.01 603.664C313.68 603.291 313.205 603.104 312.586 603.104C312.149 603.104 311.76 603.2 311.418 603.392C311.088 603.584 310.826 603.867 310.634 604.24C310.453 604.613 310.362 605.088 310.362 605.664V610H308.362V605.36C308.362 604.603 308.197 604.037 307.866 603.664C307.536 603.291 307.061 603.104 306.442 603.104C306.005 603.104 305.616 603.2 305.274 603.392C304.944 603.584 304.682 603.867 304.49 604.24C304.309 604.613 304.218 605.088 304.218 605.664V610H302.218V601.456H304.122V603.728L303.786 603.056C304.074 602.501 304.49 602.08 305.034 601.792C305.589 601.504 306.218 601.36 306.922 601.36C307.722 601.36 308.416 601.557 309.002 601.952C309.6 602.347 309.994 602.944 310.186 603.744L309.402 603.472C309.68 602.832 310.138 602.32 310.778 601.936C311.418 601.552 312.16 601.36 313.002 601.36ZM324.326 610V608.272L324.214 607.904V604.88C324.214 604.293 324.038 603.84 323.686 603.52C323.334 603.189 322.801 603.024 322.086 603.024C321.606 603.024 321.131 603.099 320.662 603.248C320.203 603.397 319.814 603.605 319.494 603.872L318.71 602.416C319.169 602.064 319.713 601.803 320.342 601.632C320.982 601.451 321.643 601.36 322.326 601.36C323.563 601.36 324.518 601.659 325.19 602.256C325.873 602.843 326.214 603.755 326.214 604.992V610H324.326ZM321.638 610.112C320.998 610.112 320.438 610.005 319.958 609.792C319.478 609.568 319.105 609.264 318.838 608.88C318.582 608.485 318.454 608.043 318.454 607.552C318.454 607.072 318.566 606.64 318.79 606.256C319.025 605.872 319.403 605.568 319.926 605.344C320.449 605.12 321.142 605.008 322.006 605.008H324.486V606.336H322.15C321.467 606.336 321.009 606.448 320.774 606.672C320.539 606.885 320.422 607.152 320.422 607.472C320.422 607.835 320.566 608.123 320.854 608.336C321.142 608.549 321.542 608.656 322.054 608.656C322.545 608.656 322.982 608.544 323.366 608.32C323.761 608.096 324.043 607.765 324.214 607.328L324.55 608.528C324.358 609.029 324.011 609.419 323.51 609.696C323.019 609.973 322.395 610.112 321.638 610.112ZM321.158 600.288L323.318 598.096H325.67L322.886 600.288H321.158ZM331.421 610.112C330.706 610.112 330.018 610.021 329.357 609.84C328.706 609.648 328.189 609.419 327.805 609.152L328.573 607.632C328.957 607.877 329.415 608.08 329.949 608.24C330.482 608.4 331.015 608.48 331.549 608.48C332.178 608.48 332.631 608.395 332.909 608.224C333.197 608.053 333.341 607.824 333.341 607.536C333.341 607.301 333.245 607.125 333.053 607.008C332.861 606.88 332.61 606.784 332.301 606.72C331.991 606.656 331.645 606.597 331.261 606.544C330.887 606.491 330.509 606.421 330.125 606.336C329.751 606.24 329.41 606.107 329.101 605.936C328.791 605.755 328.541 605.515 328.349 605.216C328.157 604.917 328.061 604.523 328.061 604.032C328.061 603.488 328.215 603.019 328.525 602.624C328.834 602.219 329.266 601.909 329.821 601.696C330.386 601.472 331.053 601.36 331.821 601.36C332.397 601.36 332.978 601.424 333.565 601.552C334.151 601.68 334.637 601.861 335.021 602.096L334.253 603.616C333.847 603.371 333.437 603.205 333.021 603.12C332.615 603.024 332.21 602.976 331.805 602.976C331.197 602.976 330.743 603.067 330.445 603.248C330.157 603.429 330.013 603.659 330.013 603.936C330.013 604.192 330.109 604.384 330.301 604.512C330.493 604.64 330.743 604.741 331.053 604.816C331.362 604.891 331.703 604.955 332.077 605.008C332.461 605.051 332.839 605.12 333.213 605.216C333.586 605.312 333.927 605.445 334.237 605.616C334.557 605.776 334.813 606.005 335.005 606.304C335.197 606.603 335.293 606.992 335.293 607.472C335.293 608.005 335.133 608.469 334.813 608.864C334.503 609.259 334.061 609.568 333.485 609.792C332.909 610.005 332.221 610.112 331.421 610.112ZM337.655 610.112C337.292 610.112 336.983 609.989 336.727 609.744C336.471 609.488 336.343 609.168 336.343 608.784C336.343 608.379 336.471 608.059 336.727 607.824C336.983 607.579 337.292 607.456 337.655 607.456C338.018 607.456 338.327 607.579 338.583 607.824C338.839 608.059 338.967 608.379 338.967 608.784C338.967 609.168 338.839 609.488 338.583 609.744C338.327 609.989 338.018 610.112 337.655 610.112ZM339.758 603.232L339.63 598.8H341.358L341.214 603.232H339.758ZM342.846 603.232L342.718 598.8H344.446L344.302 603.232H342.846Z" fill="white"/>
<path d="M145.4 511.35C142.833 511.35 140.517 510.783 138.45 509.65C136.417 508.483 134.817 506.883 133.65 504.85C132.483 502.817 131.9 500.417 131.9 497.65C131.9 494.883 132.483 492.483 133.65 490.45C134.817 488.417 136.417 486.833 138.45 485.7C140.517 484.567 142.833 484 145.4 484C147.633 484 149.633 484.5 151.4 485.5C153.167 486.467 154.567 487.95 155.6 489.95C156.633 491.95 157.15 494.517 157.15 497.65C157.15 500.75 156.65 503.317 155.65 505.35C154.65 507.35 153.267 508.85 151.5 509.85C149.733 510.85 147.7 511.35 145.4 511.35ZM146.15 506C147.65 506 148.983 505.667 150.15 505C151.35 504.333 152.3 503.367 153 502.1C153.733 500.833 154.1 499.35 154.1 497.65C154.1 495.917 153.733 494.433 153 493.2C152.3 491.933 151.35 490.967 150.15 490.3C148.983 489.633 147.65 489.3 146.15 489.3C144.65 489.3 143.3 489.633 142.1 490.3C140.933 490.967 139.983 491.933 139.25 493.2C138.55 494.433 138.2 495.917 138.2 497.65C138.2 499.35 138.55 500.833 139.25 502.1C139.983 503.367 140.933 504.333 142.1 505C143.3 505.667 144.65 506 146.15 506ZM154.25 511V504.7L154.5 497.6L154 490.5V473.9H160.2V511H154.25ZM168.426 511V484.3H174.676V511H168.426ZM171.576 479.9C170.41 479.9 169.443 479.533 168.676 478.8C167.943 478.067 167.576 477.183 167.576 476.15C167.576 475.083 167.943 474.2 168.676 473.5C169.443 472.767 170.41 472.4 171.576 472.4C172.743 472.4 173.693 472.75 174.426 473.45C175.193 474.117 175.576 474.967 175.576 476C175.576 477.1 175.21 478.033 174.476 478.8C173.743 479.533 172.776 479.9 171.576 479.9ZM194.979 521.05C192.513 521.05 190.096 520.717 187.729 520.05C185.396 519.417 183.479 518.483 181.979 517.25L184.779 512.55C185.946 513.517 187.413 514.283 189.179 514.85C190.979 515.45 192.796 515.75 194.629 515.75C197.563 515.75 199.713 515.067 201.079 513.7C202.446 512.367 203.129 510.35 203.129 507.65V502.9L203.629 496.85L203.429 490.8V484.3H209.379V506.95C209.379 511.783 208.146 515.333 205.679 517.6C203.213 519.9 199.646 521.05 194.979 521.05ZM194.179 509.8C191.646 509.8 189.346 509.267 187.279 508.2C185.246 507.1 183.629 505.583 182.429 503.65C181.263 501.717 180.679 499.45 180.679 496.85C180.679 494.283 181.263 492.033 182.429 490.1C183.629 488.167 185.246 486.667 187.279 485.6C189.346 484.533 191.646 484 194.179 484C196.446 484 198.479 484.45 200.279 485.35C202.079 486.25 203.513 487.65 204.579 489.55C205.679 491.45 206.229 493.883 206.229 496.85C206.229 499.817 205.679 502.267 204.579 504.2C203.513 506.1 202.079 507.517 200.279 508.45C198.479 509.35 196.446 509.8 194.179 509.8ZM195.129 504.5C196.696 504.5 198.096 504.183 199.329 503.55C200.563 502.883 201.513 501.983 202.179 500.85C202.879 499.683 203.229 498.35 203.229 496.85C203.229 495.35 202.879 494.033 202.179 492.9C201.513 491.733 200.563 490.85 199.329 490.25C198.096 489.617 196.696 489.3 195.129 489.3C193.563 489.3 192.146 489.617 190.879 490.25C189.646 490.85 188.679 491.733 187.979 492.9C187.313 494.033 186.979 495.35 186.979 496.85C186.979 498.35 187.313 499.683 187.979 500.85C188.679 501.983 189.646 502.883 190.879 503.55C192.146 504.183 193.563 504.5 195.129 504.5ZM217.596 511V484.3H223.846V511H217.596ZM220.746 479.9C219.579 479.9 218.613 479.533 217.846 478.8C217.113 478.067 216.746 477.183 216.746 476.15C216.746 475.083 217.113 474.2 217.846 473.5C218.613 472.767 219.579 472.4 220.746 472.4C221.913 472.4 222.863 472.75 223.596 473.45C224.363 474.117 224.746 474.967 224.746 476C224.746 477.1 224.379 478.033 223.646 478.8C222.913 479.533 221.946 479.9 220.746 479.9ZM242.099 511.35C239.166 511.35 236.899 510.6 235.299 509.1C233.699 507.567 232.899 505.317 232.899 502.35V478.4H239.149V502.2C239.149 503.467 239.466 504.45 240.099 505.15C240.766 505.85 241.683 506.2 242.849 506.2C244.249 506.2 245.416 505.833 246.349 505.1L248.099 509.55C247.366 510.15 246.466 510.6 245.399 510.9C244.333 511.2 243.233 511.35 242.099 511.35ZM228.499 489.5V484.5H246.299V489.5H228.499ZM269.691 511V505.6L269.341 504.45V495C269.341 493.167 268.791 491.75 267.691 490.75C266.591 489.717 264.924 489.2 262.691 489.2C261.191 489.2 259.707 489.433 258.241 489.9C256.807 490.367 255.591 491.017 254.591 491.85L252.141 487.3C253.574 486.2 255.274 485.383 257.241 484.85C259.241 484.283 261.307 484 263.441 484C267.307 484 270.291 484.933 272.391 486.8C274.524 488.633 275.591 491.483 275.591 495.35V511H269.691ZM261.291 511.35C259.291 511.35 257.541 511.017 256.041 510.35C254.541 509.65 253.374 508.7 252.541 507.5C251.741 506.267 251.341 504.883 251.341 503.35C251.341 501.85 251.691 500.5 252.391 499.3C253.124 498.1 254.307 497.15 255.941 496.45C257.574 495.75 259.741 495.4 262.441 495.4H270.191V499.55H262.891C260.757 499.55 259.324 499.9 258.591 500.6C257.857 501.267 257.491 502.1 257.491 503.1C257.491 504.233 257.941 505.133 258.841 505.8C259.741 506.467 260.991 506.8 262.591 506.8C264.124 506.8 265.491 506.45 266.691 505.75C267.924 505.05 268.807 504.017 269.341 502.65L270.391 506.4C269.791 507.967 268.707 509.183 267.141 510.05C265.607 510.917 263.657 511.35 261.291 511.35ZM283.612 511V473.9H289.862V511H283.612ZM300.065 511.35C298.932 511.35 297.965 510.967 297.165 510.2C296.365 509.4 295.965 508.4 295.965 507.2C295.965 505.933 296.365 504.933 297.165 504.2C297.965 503.433 298.932 503.05 300.065 503.05C301.198 503.05 302.165 503.433 302.965 504.2C303.765 504.933 304.165 505.933 304.165 507.2C304.165 508.4 303.765 509.4 302.965 510.2C302.165 510.967 301.198 511.35 300.065 511.35Z" fill="black"/>
<path d="M156 312.239L130 328V296L156 312.239Z" fill="white"/>
</g>
<defs>
<filter id="filter0_f_376_344" x="-346.624" y="211.112" width="712.396" height="1322.41" filterUnits="userSpaceOnUse" color-interpolation-filters="sRGB">
<feFlood flood-opacity="0" result="BackgroundImageFix"/>
<feBlend mode="normal" in="SourceGraphic" in2="BackgroundImageFix" result="shape"/>
<feGaussianBlur stdDeviation="34.4438" result="effect1_foregroundBlur_376_344"/>
</filter>
<filter id="filter1_f_376_344" x="360.376" y="-941.888" width="712.396" height="1322.41" filterUnits="userSpaceOnUse" color-interpolation-filters="sRGB">
<feFlood flood-opacity="0" result="BackgroundImageFix"/>
<feBlend mode="normal" in="SourceGraphic" in2="BackgroundImageFix" result="shape"/>
<feGaussianBlur stdDeviation="34.4438" result="effect1_foregroundBlur_376_344"/>
</filter>
<filter id="filter2_b_376_344" x="49.8145" y="204" width="543.371" height="528.121" filterUnits="userSpaceOnUse" color-interpolation-filters="sRGB">
<feFlood flood-opacity="0" result="BackgroundImageFix"/>
<feGaussianBlur in="BackgroundImageFix" stdDeviation="6"/>
<feComposite in2="SourceAlpha" operator="in" result="effect1_backgroundBlur_376_344"/>
<feBlend mode="normal" in="SourceGraphic" in2="effect1_backgroundBlur_376_344" result="shape"/>
</filter>
<linearGradient id="paint0_linear_376_344" x1="0" y1="0" x2="637" y2="952.5" gradientUnits="userSpaceOnUse">
<stop offset="0.0117942" stop-color="#C132D8"/>
<stop offset="1" stop-color="#5332D8"/>
</linearGradient>
<linearGradient id="paint1_linear_376_344" x1="-10.0001" y1="280" x2="-10.0001" y2="1505" gradientUnits="userSpaceOnUse">
<stop stop-color="#DFACFE"/>
<stop offset="0.961458" stop-color="#6505FF"/>
<stop offset="1" stop-color="#500BC2"/>
</linearGradient>
<linearGradient id="paint2_linear_376_344" x1="697" y1="-873" x2="697" y2="352" gradientUnits="userSpaceOnUse">
<stop stop-color="#DFACFE"/>
<stop offset="1" stop-color="#500BC2" stop-opacity="0.73"/>
</linearGradient>
<clipPath id="clip0_376_344">
<rect width="637" height="982" fill="white"/>
</clipPath>
</defs>
</svg>
